<svg width="552" height="521" viewBox="0 0 552 521" fill="none" xmlns="http://www.w3.org/2000/svg">
<path d="M543.766 228.769C548.111 228.769 551.673 232.199 551.704 236.543C551.723 239.168 551.721 242.005 551.718 245.082L551.697 271.184C551.681 289.686 551.671 298.937 546.629 305.88C541.585 312.821 532.792 315.685 515.207 321.412L476.416 334.156C466.446 338.125 455.013 348.474 448.415 359.903C441.813 371.337 438.567 386.407 440.116 397.029L448.475 436.995C452.307 455.09 454.224 464.136 450.734 471.976C447.243 479.813 439.235 484.446 423.22 493.71L400.628 506.779C383.542 516.662 374.997 521.608 366.032 520.367C357.065 519.128 350.197 512.056 336.466 497.913L313.105 473.948C304.014 465.474 292.218 460.496 279.802 459.888L269.536 459.887C258.29 460.405 247.501 464.511 238.746 471.607L217.942 490.006C204.209 502.196 197.342 508.292 188.874 509.158C180.409 510.023 172.47 505.44 156.593 496.274L131.105 481.559C115.231 472.394 107.292 467.81 103.806 460.045C100.323 452.278 102.169 443.284 105.861 425.296L111.392 398.08C113.159 386.949 111.32 375.552 106.148 365.555L101.013 356.664C94.2787 346.216 84.0688 338.488 72.1851 334.852L39.7506 326.604C20.6353 321.784 11.0777 319.372 5.52204 312.226C3.22478 309.273 5.84633 305.558 9.5854 305.698C41.6079 306.894 106.22 315.971 143.897 321.922C146.485 322.331 148.692 323.98 149.923 326.293C173.579 370.714 220.354 400.955 274.193 400.955C335.989 400.955 388.479 361.116 407.383 305.721C409.094 300.707 405.221 295.694 399.923 295.694H281.281C265.628 295.694 252.938 283.005 252.938 267.352V257.229C252.938 241.577 265.628 228.888 281.281 228.888H411.321C411.352 228.888 411.375 228.859 411.368 228.829C411.362 228.798 411.385 228.769 411.416 228.769H543.766ZM124.883 247.864C129.754 247.688 133.658 251.827 133.537 256.699C133.507 257.881 133.493 259.066 133.493 260.255C133.493 263.096 133.577 265.918 133.743 268.718C134.04 273.716 130.075 278.065 125.072 277.869L7.78083 273.274C3.43266 273.103 -0.00350327 269.527 2.68066e-06 265.176L0.00403706 260.168C0.00754687 255.812 3.4568 252.239 7.81027 252.082L124.883 247.864ZM151.082 13.7743C168.167 3.89068 176.711 -1.05116 185.677 0.187431C194.643 1.42673 201.51 8.49823 215.243 22.6406L238.605 46.6064C247.694 55.0781 259.488 60.0583 271.902 60.6669L282.17 60.6699C293.416 60.1512 304.208 56.0431 312.964 48.9482L333.766 30.5536C347.498 18.3619 354.366 12.2653 362.833 11.3993C371.3 10.5347 379.24 15.1177 395.113 24.2822L420.602 38.998C436.478 48.164 444.416 52.7479 447.899 60.5126C451.384 68.2789 449.538 77.2746 445.846 95.2636L440.315 122.475C438.549 133.606 440.388 145.005 445.562 155.004L450.7 163.895C454.364 169.581 451.044 179.251 444.282 179.079C419.713 178.458 390.785 174.111 372.491 159.588C347.129 134.82 312.443 119.556 274.193 119.556C218.215 119.556 169.872 152.246 147.214 199.578C146.011 202.09 143.686 203.892 140.929 204.292C104.658 209.556 45.1718 217.255 8.30834 219.654C5.44151 219.841 3.39012 217.001 5.07868 214.677C10.1229 207.734 18.9159 204.871 36.5025 199.143L75.2926 186.398C85.2669 182.429 96.6931 172.082 103.295 160.648C109.893 149.219 113.142 134.144 111.591 123.524L103.234 83.5595C99.4006 65.4659 97.4838 56.4181 100.974 48.58C104.465 40.7422 112.473 36.1092 128.489 26.8447L151.082 13.7743Z" fill="url(#paint0_linear_2237_12777)"/>
<defs>
<linearGradient id="paint0_linear_2237_12777" x1="275.865" y1="0" x2="275.865" y2="520.555" gradientUnits="userSpaceOnUse">
<stop stop-color="#FF0000"/>
<stop offset="1" stop-color="#AC0000"/>
</linearGradient>
</defs>
</svg>
