<svg width="2582" height="521" viewBox="0 0 2582 521" fill="none" xmlns="http://www.w3.org/2000/svg">
<path d="M1029.47 116.673C1027.38 127.438 1019.6 132.82 1006.14 132.82H838.84C829.87 132.82 824.487 137.006 822.693 145.379L786.362 316.72H903.878L917.783 251.234H848.26L857.23 209.071C859.324 198.306 867.098 192.924 880.554 192.924H1013.32L959.945 444.553H959.497L906.121 406.427C895.655 398.952 891.768 388.486 894.459 375.03H691.272L742.854 132.82C751.226 93.9469 775.148 74.5104 814.619 74.5104H1038.44L1029.47 116.673Z" fill="url(#paint0_linear_2237_12775)"/>
<path d="M1167.25 325.691C1170.54 325.691 1172.78 325.242 1173.98 324.345C1175.48 323.448 1176.52 321.504 1177.12 318.514L1179.36 307.749C1180.26 303.862 1181.31 301.32 1182.5 300.124C1184 298.928 1186.69 297.732 1190.58 296.536L1262.79 277.249H1263.69L1249.34 344.978C1246.94 355.444 1242.46 363.069 1235.88 367.853C1229.6 372.637 1220.33 375.03 1208.07 375.03H1019.68L1062.74 172.74C1065.14 162.274 1069.62 154.499 1076.2 149.416C1082.78 144.333 1092.2 141.791 1104.46 141.791H1292.39L1273.11 232.395C1271.61 239.572 1269.22 245.104 1265.93 248.991C1262.64 252.579 1257.71 255.27 1251.13 257.065L1114.77 293.396L1108.05 325.691H1167.25ZM1125.99 241.814L1190.13 224.77C1194.91 223.574 1197.75 220.733 1198.65 216.248L1204.03 191.13H1147.07C1140.19 191.13 1136.15 194.27 1134.96 200.549L1125.99 241.814Z" fill="url(#paint1_linear_2237_12775)"/>
<path d="M1408.96 191.13C1405.68 191.13 1403.28 191.578 1401.79 192.475C1400.59 193.372 1399.7 195.316 1399.1 198.306L1396.85 209.071C1395.96 212.959 1394.76 215.5 1393.27 216.696C1392.07 217.892 1389.53 219.089 1385.64 220.285L1313.43 239.572H1312.53L1326.88 171.843C1329.28 161.377 1333.61 153.752 1339.89 148.967C1346.47 144.183 1355.89 141.791 1368.15 141.791H1556.53L1513.47 344.081C1511.08 354.547 1506.6 362.321 1500.02 367.405C1493.44 372.488 1484.02 375.03 1471.76 375.03H1283.82L1303.11 284.425C1304.61 277.249 1307 271.866 1310.29 268.278C1313.58 264.391 1318.51 261.55 1325.09 259.756L1461.44 223.424L1468.17 191.13H1408.96ZM1372.18 325.691H1429.15C1436.03 325.691 1440.06 322.551 1441.26 316.271L1450.23 275.006L1386.09 292.05C1381.31 293.247 1378.46 296.087 1377.57 300.573L1372.18 325.691Z" fill="url(#paint2_linear_2237_12775)"/>
<path d="M1798.68 141.791L1770.87 272.763H1769.98L1715.26 233.741C1709.87 229.853 1707.93 224.471 1709.42 217.593L1715.26 191.13H1677.58C1670.1 191.13 1665.77 194.569 1664.57 201.446L1627.79 375.03H1549.75L1592.81 172.74C1595.2 162.274 1599.68 154.499 1606.26 149.416C1612.84 144.333 1622.26 141.791 1634.52 141.791H1798.68Z" fill="url(#paint3_linear_2237_12775)"/>
<path d="M1961.29 74.5104H2043.82L1992.24 316.72H2096.75C2101.83 316.72 2105.57 315.673 2107.96 313.58C2110.36 311.487 2112 308.347 2112.9 304.161L2161.79 74.5104H2244.77L2193.19 316.72C2184.81 355.593 2160.89 375.03 2121.42 375.03H1897.15L1961.29 74.5104Z" fill="url(#paint4_linear_2237_12775)"/>
<path d="M2416.63 375.03H2306.74L2284.31 480.436H2283.41L2230.04 442.31C2220.77 435.732 2217.48 426.163 2220.17 413.604L2271.3 172.74C2273.7 162.274 2278.18 154.499 2284.76 149.416C2291.34 144.333 2300.76 141.791 2313.02 141.791H2501.4L2458.34 344.081C2455.95 354.547 2451.47 362.321 2444.89 367.405C2438.31 372.488 2428.89 375.03 2416.63 375.03ZM2373.57 325.691C2380.75 325.691 2384.93 322.401 2386.13 315.823L2412.59 191.13H2355.18C2348 191.13 2343.82 194.419 2342.62 200.998L2316.16 325.691H2373.57Z" fill="url(#paint5_linear_2237_12775)"/>
<path d="M1045.85 478.937H997.73L997.829 478.839L1004.62 446.954H1004.82L1016.53 455.319C1018.56 456.697 1019.28 458.698 1018.69 461.322L1017.71 466.144H1040.74L1041.33 463.389C1041.46 462.798 1041.46 462.339 1041.33 462.011C1041.19 461.617 1040.9 461.256 1040.44 460.928L1013.08 441.443C1010.85 439.869 1009.38 438.065 1008.65 436.031C1007.93 433.997 1007.9 431.504 1008.56 428.552L1009.93 422.057C1011.25 416.021 1015.31 413.003 1022.14 413.003H1068.49L1061.7 444.986H1061.5L1049.79 436.621C1047.76 435.244 1047.03 433.243 1047.62 430.618L1048.61 425.796H1027.25L1026.76 428.06C1026.5 429.306 1026.76 430.192 1027.55 430.717L1054.61 450.005C1055.79 450.858 1056.78 451.743 1057.56 452.662C1058.35 453.515 1058.94 454.466 1059.33 455.516C1059.73 456.566 1059.92 457.746 1059.92 459.059C1059.92 460.305 1059.76 461.748 1059.43 463.389L1058.06 469.884C1056.74 475.919 1052.68 478.937 1045.85 478.937Z" fill="url(#paint6_linear_2237_12775)"/>
<path d="M1098.41 468.112C1099.13 468.112 1099.63 468.014 1099.89 467.817C1100.22 467.62 1100.45 467.194 1100.58 466.538L1101.07 464.176C1101.27 463.323 1101.5 462.765 1101.76 462.503C1102.09 462.24 1102.68 461.978 1103.53 461.716L1119.37 457.484H1119.57L1116.42 472.344C1115.9 474.64 1114.91 476.313 1113.47 477.363C1112.09 478.412 1110.06 478.937 1107.37 478.937H1066.04L1075.48 434.555C1076.01 432.258 1076.99 430.553 1078.44 429.437C1079.88 428.322 1081.95 427.764 1084.64 427.764H1125.87L1121.64 447.643C1121.31 449.218 1120.78 450.431 1120.06 451.284C1119.34 452.071 1118.26 452.662 1116.82 453.056L1086.9 461.027L1085.42 468.112H1098.41ZM1089.36 449.71L1103.43 445.97C1104.48 445.708 1105.1 445.084 1105.3 444.1L1106.48 438.589H1093.98C1092.48 438.589 1091.59 439.278 1091.33 440.656L1089.36 449.71Z" fill="url(#paint7_linear_2237_12775)"/>
<path d="M1179 427.764L1172.9 456.5H1172.7L1160.7 447.938C1159.51 447.085 1159.09 445.905 1159.42 444.396L1160.7 438.589H1152.43C1150.79 438.589 1149.84 439.344 1149.57 440.853L1141.51 478.937H1124.38L1133.83 434.555C1134.35 432.258 1135.34 430.553 1136.78 429.437C1138.23 428.322 1140.29 427.764 1142.98 427.764H1179Z" fill="url(#paint8_linear_2237_12775)"/>
<path d="M1203.56 427.764L1194.9 468.112H1199.03C1200.34 468.112 1201.36 467.391 1202.08 465.947L1221.47 427.764H1239.18L1215.95 472.442C1215.36 473.492 1214.81 474.443 1214.28 475.296C1213.82 476.083 1213.27 476.772 1212.61 477.363C1211.95 477.887 1211.17 478.281 1210.25 478.544C1209.39 478.806 1208.28 478.937 1206.9 478.937H1175.51L1186.43 427.764H1203.56Z" fill="url(#paint9_linear_2237_12775)"/>
<path d="M1263.08 419.596C1262.69 421.565 1261.31 422.549 1258.95 422.549H1245.37L1247.34 413.003C1247.73 411.035 1249.11 410.051 1251.47 410.051H1265.15L1263.08 419.596ZM1247.24 494.191H1247.04L1235.33 485.826C1234.22 485.039 1233.5 484.153 1233.17 483.169C1232.91 482.185 1232.94 480.971 1233.27 479.528L1244.29 427.764H1261.41L1247.24 494.191Z" fill="url(#paint10_linear_2237_12775)"/>
<path d="M1317.93 427.764L1311.83 456.5H1311.64L1299.63 447.938C1298.45 447.085 1298.02 445.905 1298.35 444.396L1299.63 438.589H1288.02C1286.51 438.589 1285.62 439.245 1285.36 440.558L1279.46 468.112H1309.27L1307.7 475.394C1307.24 477.756 1305.67 478.937 1302.98 478.937H1259.97L1269.52 434.259C1270.04 431.963 1270.99 430.323 1272.37 429.339C1273.75 428.289 1275.82 427.764 1278.57 427.764H1317.93Z" fill="url(#paint11_linear_2237_12775)"/>
<path d="M1347.9 468.112C1348.62 468.112 1349.11 468.014 1349.37 467.817C1349.7 467.62 1349.93 467.194 1350.06 466.538L1350.55 464.176C1350.75 463.323 1350.98 462.765 1351.24 462.503C1351.57 462.24 1352.16 461.978 1353.01 461.716L1368.86 457.484H1369.05L1365.9 472.344C1365.38 474.64 1364.4 476.313 1362.95 477.363C1361.57 478.412 1359.54 478.937 1356.85 478.937H1315.52L1324.97 434.555C1325.49 432.258 1326.48 430.553 1327.92 429.437C1329.36 428.322 1331.43 427.764 1334.12 427.764H1375.35L1371.12 447.643C1370.79 449.218 1370.27 450.431 1369.55 451.284C1368.82 452.071 1367.74 452.662 1366.3 453.056L1336.38 461.027L1334.91 468.112H1347.9ZM1338.84 449.71L1352.91 445.97C1353.96 445.708 1354.59 445.084 1354.78 444.1L1355.97 438.589H1343.47C1341.96 438.589 1341.07 439.278 1340.81 440.656L1338.84 449.71Z" fill="url(#paint12_linear_2237_12775)"/>
<path d="M1385.67 478.937H1371.99L1374.06 469.096C1374.46 467.128 1375.83 466.144 1378.19 466.144H1391.87L1389.81 475.985C1389.41 477.953 1388.04 478.937 1385.67 478.937Z" fill="url(#paint13_linear_2237_12775)"/>
<path d="M1470.34 478.937H1422.22L1422.31 478.839L1429.1 446.954H1429.3L1441.01 455.319C1443.05 456.697 1443.77 458.698 1443.18 461.322L1442.19 466.144H1465.22L1465.81 463.389C1465.94 462.798 1465.94 462.339 1465.81 462.011C1465.68 461.617 1465.38 461.256 1464.93 460.928L1437.57 441.443C1435.34 439.869 1433.86 438.065 1433.14 436.031C1432.42 433.997 1432.38 431.504 1433.04 428.552L1434.42 422.057C1435.73 416.021 1439.8 413.003 1446.62 413.003H1492.97L1486.18 444.986H1485.99L1474.27 436.621C1472.24 435.244 1471.52 433.243 1472.11 430.618L1473.09 425.796H1451.74L1451.25 428.06C1450.98 429.306 1451.25 430.192 1452.03 430.717L1479.1 450.005C1480.28 450.858 1481.26 451.743 1482.05 452.662C1482.84 453.515 1483.43 454.466 1483.82 455.516C1484.21 456.566 1484.41 457.746 1484.41 459.059C1484.41 460.305 1484.25 461.748 1483.92 463.389L1482.54 469.884C1481.23 475.919 1477.16 478.937 1470.34 478.937Z" fill="url(#paint14_linear_2237_12775)"/>
<path d="M1532.35 478.937H1508.24L1503.32 502.063H1503.12L1491.41 493.699C1489.37 492.255 1488.65 490.156 1489.24 487.4L1500.46 434.555C1500.99 432.258 1501.97 430.553 1503.41 429.437C1504.86 428.322 1506.92 427.764 1509.61 427.764H1550.95L1541.5 472.147C1540.97 474.443 1539.99 476.149 1538.55 477.264C1537.1 478.38 1535.04 478.937 1532.35 478.937ZM1522.9 468.112C1524.47 468.112 1525.39 467.391 1525.65 465.947L1531.46 438.589H1518.86C1517.29 438.589 1516.37 439.311 1516.11 440.754L1510.3 468.112H1522.9Z" fill="url(#paint15_linear_2237_12775)"/>
<path d="M1576.51 438.589C1575.79 438.589 1575.26 438.688 1574.93 438.885C1574.67 439.081 1574.47 439.508 1574.34 440.164L1573.85 442.526C1573.65 443.379 1573.39 443.936 1573.06 444.199C1572.8 444.461 1572.24 444.724 1571.39 444.986L1555.55 449.218H1555.35L1558.5 434.358C1559.02 432.062 1559.97 430.389 1561.35 429.339C1562.8 428.289 1564.86 427.764 1567.55 427.764H1608.88L1599.44 472.147C1598.91 474.443 1597.93 476.149 1596.48 477.264C1595.04 478.38 1592.97 478.937 1590.28 478.937H1549.05L1553.28 459.059C1553.61 457.484 1554.14 456.303 1554.86 455.516C1555.58 454.663 1556.66 454.04 1558.1 453.646L1588.02 445.675L1589.5 438.589H1576.51ZM1568.44 468.112H1580.94C1582.44 468.112 1583.33 467.423 1583.59 466.046L1585.56 456.992L1571.49 460.732C1570.44 460.994 1569.82 461.617 1569.62 462.601L1568.44 468.112Z" fill="url(#paint16_linear_2237_12775)"/>
<path d="M1662.01 427.764L1655.91 456.5H1655.71L1643.71 447.938C1642.53 447.085 1642.1 445.905 1642.43 444.396L1643.71 438.589H1635.44C1633.8 438.589 1632.85 439.344 1632.59 440.853L1624.52 478.937H1607.39L1616.84 434.555C1617.37 432.258 1618.35 430.553 1619.79 429.437C1621.24 428.322 1623.3 427.764 1625.99 427.764H1662.01Z" fill="url(#paint17_linear_2237_12775)"/>
<path d="M1690.41 468.112C1691.13 468.112 1691.62 468.014 1691.88 467.817C1692.21 467.62 1692.44 467.194 1692.57 466.538L1693.06 464.176C1693.26 463.323 1693.49 462.765 1693.75 462.503C1694.08 462.24 1694.67 461.978 1695.52 461.716L1711.37 457.484H1711.56L1708.41 472.344C1707.89 474.64 1706.91 476.313 1705.46 477.363C1704.08 478.412 1702.05 478.937 1699.36 478.937H1658.03L1667.48 434.555C1668 432.258 1668.99 430.553 1670.43 429.437C1671.87 428.322 1673.94 427.764 1676.63 427.764H1717.86L1713.63 447.643C1713.3 449.218 1712.78 450.431 1712.06 451.284C1711.33 452.071 1710.25 452.662 1708.81 453.056L1678.89 461.027L1677.42 468.112H1690.41ZM1681.35 449.71L1695.42 445.97C1696.47 445.708 1697.1 445.084 1697.29 444.1L1698.47 438.589H1685.98C1684.47 438.589 1683.58 439.278 1683.32 440.656L1681.35 449.71Z" fill="url(#paint18_linear_2237_12775)"/>
<path d="M1735.27 463.585L1734.29 468.112H1748.95L1749.15 467.128C1749.28 466.341 1749.24 465.718 1749.05 465.258C1748.92 464.799 1748.55 464.34 1747.96 463.881L1728.38 449.906C1726.48 448.594 1725.23 447.085 1724.64 445.38C1724.05 443.674 1724.02 441.575 1724.54 439.081L1725.33 435.342C1725.85 432.98 1726.87 431.143 1728.38 429.831C1729.89 428.453 1731.89 427.764 1734.38 427.764H1774.24L1768.43 454.925H1768.24L1756.23 446.364C1755.51 445.839 1755.05 445.347 1754.85 444.888C1754.72 444.428 1754.75 443.74 1754.95 442.821L1755.84 438.589H1741.76L1741.57 439.574C1741.44 440.361 1741.44 440.984 1741.57 441.443C1741.76 441.903 1742.16 442.362 1742.75 442.821L1762.33 456.795C1764.23 458.107 1765.48 459.616 1766.07 461.322C1766.66 463.028 1766.69 465.127 1766.17 467.62L1765.38 471.36C1764.86 473.722 1763.84 475.591 1762.33 476.969C1760.82 478.281 1758.82 478.937 1756.33 478.937H1715.88L1715.98 478.839L1721.79 451.481H1721.98L1733.99 460.043C1734.71 460.567 1735.14 461.06 1735.27 461.519C1735.47 461.978 1735.47 462.667 1735.27 463.585Z" fill="url(#paint19_linear_2237_12775)"/>
<path d="M1784.98 478.937H1771.3L1773.37 469.096C1773.76 467.128 1775.14 466.144 1777.5 466.144H1791.18L1789.11 475.985C1788.72 477.953 1787.34 478.937 1784.98 478.937Z" fill="url(#paint20_linear_2237_12775)"/>
<path d="M1869.64 478.937H1821.52L1821.62 478.839L1828.41 446.954H1828.61L1840.32 455.319C1842.35 456.697 1843.07 458.698 1842.48 461.322L1841.5 466.144H1864.53L1865.12 463.389C1865.25 462.798 1865.25 462.339 1865.12 462.011C1864.99 461.617 1864.69 461.256 1864.23 460.928L1836.87 441.443C1834.64 439.869 1833.17 438.065 1832.45 436.031C1831.72 433.997 1831.69 431.504 1832.35 428.552L1833.73 422.057C1835.04 416.021 1839.11 413.003 1845.93 413.003H1892.28L1885.49 444.986H1885.29L1873.58 436.621C1871.55 435.244 1870.83 433.243 1871.42 430.618L1872.4 425.796H1851.05L1850.55 428.06C1850.29 429.306 1850.55 430.192 1851.34 430.717L1878.4 450.005C1879.58 450.858 1880.57 451.743 1881.36 452.662C1882.14 453.515 1882.73 454.466 1883.13 455.516C1883.52 456.566 1883.72 457.746 1883.72 459.059C1883.72 460.305 1883.55 461.748 1883.23 463.389L1881.85 469.884C1880.54 475.919 1876.47 478.937 1869.64 478.937Z" fill="url(#paint21_linear_2237_12775)"/>
<path d="M1917.38 438.589C1916.66 438.589 1916.14 438.688 1915.81 438.885C1915.55 439.081 1915.35 439.508 1915.22 440.164L1914.73 442.526C1914.53 443.379 1914.27 443.936 1913.94 444.199C1913.68 444.461 1913.12 444.724 1912.27 444.986L1896.42 449.218H1896.23L1899.37 434.358C1899.9 432.062 1900.85 430.389 1902.23 429.339C1903.67 428.289 1905.74 427.764 1908.43 427.764H1949.76L1940.31 472.147C1939.79 474.443 1938.8 476.149 1937.36 477.264C1935.92 478.38 1933.85 478.937 1931.16 478.937H1889.93L1894.16 459.059C1894.49 457.484 1895.01 456.303 1895.73 455.516C1896.45 454.663 1897.54 454.04 1898.98 453.646L1928.9 445.675L1930.37 438.589H1917.38ZM1909.31 468.112H1921.81C1923.32 468.112 1924.21 467.423 1924.47 466.046L1926.44 456.992L1912.36 460.732C1911.31 460.994 1910.69 461.617 1910.49 462.601L1909.31 468.112Z" fill="url(#paint22_linear_2237_12775)"/>
<path d="M1989.8 435.244C1989.27 437.474 1987.9 438.589 1985.67 438.589H1974.05L1962.24 494.191H1962.05L1950.34 485.826C1949.22 485.039 1948.5 484.153 1948.17 483.169C1947.91 482.185 1947.94 480.971 1948.27 479.528L1961.56 416.841C1962.08 414.545 1963.03 412.839 1964.41 411.724C1965.85 410.608 1967.92 410.051 1970.61 410.051H1998.75L1997.18 417.431C1996.98 418.481 1996.49 419.334 1995.7 419.99C1994.98 420.581 1994.1 420.876 1993.05 420.876H1980.06C1978.55 420.876 1977.63 421.63 1977.3 423.139L1976.32 427.764H1991.47L1989.8 435.244Z" fill="url(#paint23_linear_2237_12775)"/>
<path d="M2018.98 468.112C2019.7 468.112 2020.19 468.014 2020.46 467.817C2020.78 467.62 2021.01 467.194 2021.15 466.538L2021.64 464.176C2021.83 463.323 2022.06 462.765 2022.33 462.503C2022.65 462.24 2023.25 461.978 2024.1 461.716L2039.94 457.484H2040.14L2036.99 472.344C2036.46 474.64 2035.48 476.313 2034.04 477.363C2032.66 478.412 2030.63 478.937 2027.94 478.937H1986.6L1996.05 434.555C1996.58 432.258 1997.56 430.553 1999 429.437C2000.45 428.322 2002.51 427.764 2005.2 427.764H2046.44L2042.21 447.643C2041.88 449.218 2041.35 450.431 2040.63 451.284C2039.91 452.071 2038.83 452.662 2037.38 453.056L2007.47 461.027L2005.99 468.112H2018.98ZM2009.93 449.71L2024 445.97C2025.05 445.708 2025.67 445.084 2025.87 444.1L2027.05 438.589H2014.55C2013.04 438.589 2012.16 439.278 2011.9 440.656L2009.93 449.71Z" fill="url(#paint24_linear_2237_12775)"/>
<path d="M2087.86 438.589H2070.73L2064.43 468.112H2073.59L2076.74 453.449H2076.93L2088.94 462.011C2089.66 462.536 2090.09 463.028 2090.22 463.487C2090.41 463.946 2090.41 464.635 2090.22 465.554L2087.36 478.937H2045.05L2060.7 405.13H2060.89L2072.6 413.495C2074.64 414.938 2075.36 417.005 2074.77 419.695L2073.09 427.764H2093.66L2091.99 435.637C2091.6 437.605 2090.22 438.589 2087.86 438.589Z" fill="url(#paint25_linear_2237_12775)"/>
<path d="M2154.38 427.764L2141.09 490.254C2139.91 495.831 2136.24 498.619 2130.07 498.619H2092.87L2094.45 491.337C2094.9 488.975 2096.48 487.794 2099.17 487.794H2122.29C2123.74 487.794 2124.62 487.138 2124.95 485.826L2126.43 478.937H2094.45L2105.27 427.764H2122.39L2113.83 468.112H2126.33C2127.97 468.112 2128.92 467.358 2129.18 465.849L2137.25 427.764H2154.38Z" fill="url(#paint26_linear_2237_12775)"/>
<path d="M2165.16 478.937H2151.48L2153.55 469.096C2153.94 467.128 2155.32 466.144 2157.68 466.144H2171.36L2169.3 475.985C2168.9 477.953 2167.52 478.937 2165.16 478.937Z" fill="url(#paint27_linear_2237_12775)"/>
<path d="M2539.57 58.517C2540.97 58.922 2542.24 59.7933 2543.08 61.1288C2543.35 61.5355 2543.56 61.9716 2543.72 62.4317L2581.11 151.539C2583.39 156.978 2576.66 161.384 2571.87 157.585L2519.65 116.141L2452.96 115.788C2446.85 115.756 2444.36 108.107 2449.54 105.293L2534.41 59.2116C2534.97 58.8455 2535.59 58.5846 2536.23 58.4283C2537.31 58.149 2538.4 58.1858 2539.41 58.4675C2539.41 58.4687 2539.42 58.4699 2539.42 58.4711C2539.47 58.4855 2539.52 58.5013 2539.57 58.517Z" fill="#D70101"/>
<path d="M543.766 228.769C548.111 228.769 551.673 232.199 551.704 236.543C551.723 239.168 551.721 242.005 551.718 245.082L551.697 271.184C551.681 289.686 551.671 298.937 546.629 305.88C541.585 312.821 532.792 315.685 515.207 321.412L476.416 334.156C466.446 338.125 455.013 348.474 448.415 359.903C441.813 371.337 438.567 386.407 440.116 397.029L448.475 436.995C452.307 455.09 454.224 464.136 450.734 471.977C447.243 479.813 439.235 484.446 423.22 493.71L400.628 506.779C383.542 516.662 374.997 521.608 366.032 520.367C357.065 519.128 350.197 512.056 336.466 497.913L313.105 473.948C304.014 465.474 292.218 460.496 279.802 459.888L269.536 459.887C258.29 460.405 247.501 464.511 238.746 471.607L217.942 490.006C204.209 502.197 197.342 508.292 188.874 509.158C180.409 510.023 172.47 505.44 156.593 496.274L131.105 481.559C115.231 472.394 107.292 467.81 103.806 460.045C100.323 452.278 102.169 443.284 105.861 425.296L111.392 398.08C113.159 386.949 111.32 375.552 106.148 365.555L101.013 356.664C94.2787 346.216 84.0688 338.488 72.1851 334.852L39.7506 326.604C20.6353 321.784 11.0777 319.372 5.52204 312.227C3.22478 309.273 5.84633 305.558 9.5854 305.698C41.6079 306.894 106.22 315.971 143.897 321.922C146.485 322.331 148.692 323.98 149.923 326.293C173.579 370.714 220.354 400.955 274.193 400.955C335.989 400.955 388.479 361.116 407.383 305.721C409.094 300.707 405.221 295.694 399.923 295.694H281.281C265.628 295.694 252.938 283.005 252.938 267.352V257.229C252.938 241.577 265.628 228.888 281.281 228.888H411.321C411.352 228.888 411.375 228.859 411.368 228.829C411.362 228.798 411.385 228.769 411.416 228.769H543.766Z" fill="url(#paint28_linear_2237_12775)"/>
<path d="M124.883 247.864C129.754 247.688 133.658 251.827 133.537 256.699C133.507 257.881 133.493 259.066 133.493 260.255C133.493 263.096 133.577 265.918 133.743 268.718C134.04 273.716 130.075 278.065 125.072 277.869L7.78083 273.274C3.43266 273.103 -0.00350327 269.527 2.68047e-06 265.176L0.00403706 260.168C0.00754687 255.812 3.4568 252.239 7.81027 252.082L124.883 247.864Z" fill="url(#paint29_linear_2237_12775)"/>
<path d="M151.082 13.7743C168.167 3.89068 176.711 -1.05116 185.677 0.18743C194.643 1.42673 201.51 8.49823 215.243 22.6406L238.605 46.6064C247.694 55.0781 259.488 60.0583 271.902 60.6669L282.17 60.6699C293.416 60.1512 304.208 56.0431 312.964 48.9482L333.766 30.5536C347.498 18.3619 354.366 12.2653 362.833 11.3993C371.3 10.5347 379.239 15.1177 395.113 24.2822L420.602 38.998C436.478 48.164 444.416 52.7479 447.899 60.5126C451.384 68.2789 449.538 77.2746 445.846 95.2636L440.315 122.475C438.549 133.606 440.388 145.005 445.562 155.004L450.7 163.895C454.364 169.581 451.044 179.251 444.282 179.079C419.713 178.458 390.785 174.111 372.491 159.588C347.129 134.82 312.443 119.556 274.193 119.556C218.215 119.556 169.872 152.246 147.214 199.578C146.011 202.09 143.686 203.892 140.929 204.292C104.658 209.556 45.1718 217.255 8.30834 219.654C5.44151 219.841 3.39012 217.001 5.07868 214.677C10.1229 207.734 18.9159 204.871 36.5025 199.143L75.2925 186.398C85.2669 182.429 96.6931 172.082 103.295 160.648C109.893 149.219 113.142 134.144 111.591 123.524L103.234 83.5595C99.4006 65.4659 97.4838 56.4181 100.974 48.58C104.465 40.7422 112.473 36.1092 128.489 26.8447L151.082 13.7743Z" fill="url(#paint30_linear_2237_12775)"/>
<defs>
<linearGradient id="paint0_linear_2237_12775" x1="1604.08" y1="374.938" x2="1604.08" y2="498.414" gradientUnits="userSpaceOnUse">
<stop stop-color="#FF0000"/>
<stop offset="1" stop-color="#AC0000"/>
</linearGradient>
<linearGradient id="paint1_linear_2237_12775" x1="1604.08" y1="374.938" x2="1604.08" y2="498.414" gradientUnits="userSpaceOnUse">
<stop stop-color="#FF0000"/>
<stop offset="1" stop-color="#AC0000"/>
</linearGradient>
<linearGradient id="paint2_linear_2237_12775" x1="1604.08" y1="374.938" x2="1604.08" y2="498.414" gradientUnits="userSpaceOnUse">
<stop stop-color="#FF0000"/>
<stop offset="1" stop-color="#AC0000"/>
</linearGradient>
<linearGradient id="paint3_linear_2237_12775" x1="1604.08" y1="374.938" x2="1604.08" y2="498.414" gradientUnits="userSpaceOnUse">
<stop stop-color="#FF0000"/>
<stop offset="1" stop-color="#AC0000"/>
</linearGradient>
<linearGradient id="paint4_linear_2237_12775" x1="1604.08" y1="374.938" x2="1604.08" y2="498.414" gradientUnits="userSpaceOnUse">
<stop stop-color="#FF0000"/>
<stop offset="1" stop-color="#AC0000"/>
</linearGradient>
<linearGradient id="paint5_linear_2237_12775" x1="1604.08" y1="374.938" x2="1604.08" y2="498.414" gradientUnits="userSpaceOnUse">
<stop stop-color="#FF0000"/>
<stop offset="1" stop-color="#AC0000"/>
</linearGradient>
<linearGradient id="paint6_linear_2237_12775" x1="1604.08" y1="374.938" x2="1604.08" y2="498.414" gradientUnits="userSpaceOnUse">
<stop stop-color="#FF0000"/>
<stop offset="1" stop-color="#AC0000"/>
</linearGradient>
<linearGradient id="paint7_linear_2237_12775" x1="1604.08" y1="374.938" x2="1604.08" y2="498.414" gradientUnits="userSpaceOnUse">
<stop stop-color="#FF0000"/>
<stop offset="1" stop-color="#AC0000"/>
</linearGradient>
<linearGradient id="paint8_linear_2237_12775" x1="1604.08" y1="374.938" x2="1604.08" y2="498.414" gradientUnits="userSpaceOnUse">
<stop stop-color="#FF0000"/>
<stop offset="1" stop-color="#AC0000"/>
</linearGradient>
<linearGradient id="paint9_linear_2237_12775" x1="1604.08" y1="374.938" x2="1604.08" y2="498.414" gradientUnits="userSpaceOnUse">
<stop stop-color="#FF0000"/>
<stop offset="1" stop-color="#AC0000"/>
</linearGradient>
<linearGradient id="paint10_linear_2237_12775" x1="1604.08" y1="374.938" x2="1604.08" y2="498.414" gradientUnits="userSpaceOnUse">
<stop stop-color="#FF0000"/>
<stop offset="1" stop-color="#AC0000"/>
</linearGradient>
<linearGradient id="paint11_linear_2237_12775" x1="1604.08" y1="374.938" x2="1604.08" y2="498.414" gradientUnits="userSpaceOnUse">
<stop stop-color="#FF0000"/>
<stop offset="1" stop-color="#AC0000"/>
</linearGradient>
<linearGradient id="paint12_linear_2237_12775" x1="1604.08" y1="374.938" x2="1604.08" y2="498.414" gradientUnits="userSpaceOnUse">
<stop stop-color="#FF0000"/>
<stop offset="1" stop-color="#AC0000"/>
</linearGradient>
<linearGradient id="paint13_linear_2237_12775" x1="1604.08" y1="374.938" x2="1604.08" y2="498.414" gradientUnits="userSpaceOnUse">
<stop stop-color="#FF0000"/>
<stop offset="1" stop-color="#AC0000"/>
</linearGradient>
<linearGradient id="paint14_linear_2237_12775" x1="1604.08" y1="374.938" x2="1604.08" y2="498.414" gradientUnits="userSpaceOnUse">
<stop stop-color="#FF0000"/>
<stop offset="1" stop-color="#AC0000"/>
</linearGradient>
<linearGradient id="paint15_linear_2237_12775" x1="1604.08" y1="374.938" x2="1604.08" y2="498.414" gradientUnits="userSpaceOnUse">
<stop stop-color="#FF0000"/>
<stop offset="1" stop-color="#AC0000"/>
</linearGradient>
<linearGradient id="paint16_linear_2237_12775" x1="1604.08" y1="374.938" x2="1604.08" y2="498.414" gradientUnits="userSpaceOnUse">
<stop stop-color="#FF0000"/>
<stop offset="1" stop-color="#AC0000"/>
</linearGradient>
<linearGradient id="paint17_linear_2237_12775" x1="1604.08" y1="374.938" x2="1604.08" y2="498.414" gradientUnits="userSpaceOnUse">
<stop stop-color="#FF0000"/>
<stop offset="1" stop-color="#AC0000"/>
</linearGradient>
<linearGradient id="paint18_linear_2237_12775" x1="1604.08" y1="374.938" x2="1604.08" y2="498.414" gradientUnits="userSpaceOnUse">
<stop stop-color="#FF0000"/>
<stop offset="1" stop-color="#AC0000"/>
</linearGradient>
<linearGradient id="paint19_linear_2237_12775" x1="1604.08" y1="374.938" x2="1604.08" y2="498.414" gradientUnits="userSpaceOnUse">
<stop stop-color="#FF0000"/>
<stop offset="1" stop-color="#AC0000"/>
</linearGradient>
<linearGradient id="paint20_linear_2237_12775" x1="1604.08" y1="374.938" x2="1604.08" y2="498.414" gradientUnits="userSpaceOnUse">
<stop stop-color="#FF0000"/>
<stop offset="1" stop-color="#AC0000"/>
</linearGradient>
<linearGradient id="paint21_linear_2237_12775" x1="1604.08" y1="374.938" x2="1604.08" y2="498.414" gradientUnits="userSpaceOnUse">
<stop stop-color="#FF0000"/>
<stop offset="1" stop-color="#AC0000"/>
</linearGradient>
<linearGradient id="paint22_linear_2237_12775" x1="1604.08" y1="374.938" x2="1604.08" y2="498.414" gradientUnits="userSpaceOnUse">
<stop stop-color="#FF0000"/>
<stop offset="1" stop-color="#AC0000"/>
</linearGradient>
<linearGradient id="paint23_linear_2237_12775" x1="1604.08" y1="374.938" x2="1604.08" y2="498.414" gradientUnits="userSpaceOnUse">
<stop stop-color="#FF0000"/>
<stop offset="1" stop-color="#AC0000"/>
</linearGradient>
<linearGradient id="paint24_linear_2237_12775" x1="1604.08" y1="374.938" x2="1604.08" y2="498.414" gradientUnits="userSpaceOnUse">
<stop stop-color="#FF0000"/>
<stop offset="1" stop-color="#AC0000"/>
</linearGradient>
<linearGradient id="paint25_linear_2237_12775" x1="1604.08" y1="374.938" x2="1604.08" y2="498.414" gradientUnits="userSpaceOnUse">
<stop stop-color="#FF0000"/>
<stop offset="1" stop-color="#AC0000"/>
</linearGradient>
<linearGradient id="paint26_linear_2237_12775" x1="1604.08" y1="374.938" x2="1604.08" y2="498.414" gradientUnits="userSpaceOnUse">
<stop stop-color="#FF0000"/>
<stop offset="1" stop-color="#AC0000"/>
</linearGradient>
<linearGradient id="paint27_linear_2237_12775" x1="1604.08" y1="374.938" x2="1604.08" y2="498.414" gradientUnits="userSpaceOnUse">
<stop stop-color="#FF0000"/>
<stop offset="1" stop-color="#AC0000"/>
</linearGradient>
<linearGradient id="paint28_linear_2237_12775" x1="275.865" y1="0" x2="275.865" y2="520.555" gradientUnits="userSpaceOnUse">
<stop stop-color="#FF0000"/>
<stop offset="1" stop-color="#AC0000"/>
</linearGradient>
<linearGradient id="paint29_linear_2237_12775" x1="275.865" y1="0" x2="275.865" y2="520.555" gradientUnits="userSpaceOnUse">
<stop stop-color="#FF0000"/>
<stop offset="1" stop-color="#AC0000"/>
</linearGradient>
<linearGradient id="paint30_linear_2237_12775" x1="275.865" y1="0" x2="275.865" y2="520.555" gradientUnits="userSpaceOnUse">
<stop stop-color="#FF0000"/>
<stop offset="1" stop-color="#AC0000"/>
</linearGradient>
</defs>
</svg>
